<?xml version="1.0" encoding="UTF-8"?>
<svg id="Layer_1" data-name="Layer 1" xmlns="http://www.w3.org/2000/svg" viewBox="0 0 49.54 42.16">
  <defs>
    <style>
      .cls-1 {
        fill: #fff;
      }

      .cls-2 {
        fill: #9b5023;
      }

      .cls-3, .cls-4 {
        fill: #2d2925;
      }

      .cls-4 {
        stroke: #2d2925;
        stroke-miterlimit: 10;
        stroke-width: .5px;
      }
    </style>
  </defs>
  <path class="cls-3" d="M11.1,29.42c-.04-.29-2.33-.14-4.3-.1-2.73,.06-5.47,.1-5.47,.1l1.17,3.32-1.07,3.42,10.06,.1-.39-6.83Z"/>
  <g>
    <path class="cls-1" d="M6.32,33.52s-.28-1.76,2.64-2.25c1.76-.29,2.15-1.66,2.15-1.66,0,0,.2,.1,.49,2.34,.29,2.25,.2,4.3,.2,4.3"/>
    <path class="cls-3" d="M12.08,36.27l-.59-.03s.09-2.05-.19-4.24c-.1-.79-.19-1.3-.26-1.63-.33,.46-.95,1.02-2.04,1.2-2.6,.43-2.4,1.9-2.39,1.91l-.58,.09s-.29-2.05,2.88-2.58c1.54-.26,1.9-1.4,1.91-1.45l.1-.33,.31,.15c.13,.06,.33,.17,.65,2.57,.29,2.25,.2,4.33,.2,4.35Zm-1.2-6.47h0Z"/>
  </g>
  <path class="cls-3" d="M44.59,42.16H11.49c-4.98,0-5.27-2.2-5.27-2.2v-6.97s1.66,2.28,5.57,2.34c6.44,.1,32.81,0,32.81,0l-1.76,3.36,1.76,3.47Z"/>
  <g>
    <path class="cls-1" d="M12.03,40.1l-.44-.64h-.49v.64h-.53v-2.3h1c.62,0,1,.32,1,.84,0,.35-.17,.6-.47,.73l.52,.74h-.57Zm-.5-1.87h-.43v.8h.43c.33,0,.49-.15,.49-.4s-.16-.4-.49-.4Z"/>
    <path class="cls-1" d="M13.84,37.8h.53v2.3h-.53v-2.3Z"/>
    <path class="cls-1" d="M15.59,39.87l.18-.4c.19,.14,.48,.24,.76,.24,.32,0,.44-.11,.44-.25,0-.43-1.34-.13-1.34-.99,0-.39,.32-.72,.97-.72,.29,0,.59,.07,.8,.2l-.16,.4c-.21-.12-.43-.18-.64-.18-.32,0-.44,.12-.44,.26,0,.42,1.34,.13,1.34,.98,0,.38-.32,.71-.98,.71-.37,0-.73-.11-.94-.27Z"/>
    <path class="cls-1" d="M19.17,38.23h-.74v-.43h2.01v.43h-.74v1.87h-.53v-1.87Z"/>
    <path class="cls-1" d="M21.41,38.95c0-.68,.53-1.19,1.26-1.19s1.26,.5,1.26,1.19-.54,1.19-1.26,1.19-1.26-.51-1.26-1.19Zm1.98,0c0-.44-.31-.74-.72-.74s-.72,.3-.72,.74,.31,.74,.72,.74,.72-.3,.72-.74Z"/>
    <path class="cls-1" d="M26.65,40.1l-.44-.64h-.49v.64h-.53v-2.3h1c.62,0,1,.32,1,.84,0,.35-.17,.6-.47,.73l.52,.74h-.57Zm-.5-1.87h-.43v.8h.43c.33,0,.49-.15,.49-.4s-.16-.4-.49-.4Z"/>
    <path class="cls-1" d="M29.97,39.61h-1.07l-.2,.49h-.55l1.03-2.3h.53l1.03,2.3h-.56l-.2-.49Zm-.17-.4l-.37-.88-.37,.88h.73Z"/>
    <path class="cls-1" d="M33.94,37.8v2.3h-.44l-1.15-1.4v1.4h-.53v-2.3h.44l1.14,1.4v-1.4h.53Z"/>
    <path class="cls-1" d="M35.82,38.23h-.74v-.43h2.01v.43h-.74v1.87h-.53v-1.87Z"/>
    <path class="cls-1" d="M40.01,39.67v.43h-1.78v-2.3h1.74v.43h-1.21v.5h1.07v.41h-1.07v.53h1.25Z"/>
  </g>
  <g>
    <path class="cls-4" d="M13.54,26.51h1.74c1.36,0,2.02,.6,2.02,1.9,0,.93-.35,1.49-1.08,1.6,.91,.21,1.29,.84,1.29,1.91,0,1.31-.59,2.16-1.94,2.16h-2.02v-7.56Zm1.68,3.16c.89,0,1.16-.36,1.16-1.26,0-1.04-.46-1.11-1.53-1.11h-.25v2.37h.63Zm.08,3.65c.94,0,1.19-.42,1.19-1.4s-.35-1.45-1.27-1.45h-.63v2.85h.71Z"/>
    <path class="cls-4" d="M18.1,31.7v-2.87c0-1.49,.54-2.39,2.07-2.39s2.06,.91,2.06,2.39v2.88c0,1.48-.54,2.45-2.06,2.45s-2.07-.95-2.07-2.46Zm3.07,.23v-3.32c0-.84-.16-1.35-1-1.35s-1.01,.51-1.01,1.35v3.32c0,.84,.16,1.39,1.01,1.39s1-.55,1-1.39Z"/>
    <path class="cls-4" d="M23.09,26.51h.72l2.15,5.02v-5.02h.88v7.56h-.67l-2.18-5.16v5.16h-.9v-7.56Z"/>
    <path class="cls-4" d="M27.69,31.59v-2.53c0-1.65,.43-2.61,2.03-2.61,1.42,0,1.97,.71,1.97,2.2v.28h-.99v-.23c0-.98-.11-1.43-.96-1.43-.93,0-.99,.7-.99,1.63v2.8c0,1.09,.19,1.62,1.02,1.62s1.03-.59,1.03-1.73v-.52h-.96v-.75h1.91v3.74h-.66l-.1-.87c-.21,.56-.6,.96-1.34,.96-1.42,0-1.94-.94-1.94-2.58Z"/>
    <path class="cls-4" d="M32.57,31.52v-5.01h1.01v5.06c0,.98,.12,1.76,1.01,1.76s1.01-.78,1.01-1.76v-5.06h1v5.01c0,1.59-.36,2.63-2.01,2.63s-2.02-1.05-2.02-2.63Z"/>
    <path class="cls-4" d="M37.3,31.95l.93-.25c.06,.81,.26,1.62,1.07,1.62,.54,0,.83-.31,.83-.89,0-.68-.35-1.04-.82-1.46l-1.27-1.12c-.5-.44-.73-.91-.73-1.67,0-1.11,.68-1.75,1.77-1.75,1.2,0,1.78,.63,1.9,1.95l-.9,.24c-.06-.75-.22-1.38-1.01-1.38-.52,0-.83,.28-.83,.83,0,.46,.14,.72,.49,1.03l1.28,1.12c.57,.5,1.08,1.18,1.08,2.12,0,1.12-.76,1.8-1.81,1.8-1.32,0-1.93-.9-2.01-2.2Z"/>
    <path class="cls-4" d="M42.58,27.29h-1.28v-.78h3.58v.78h-1.24v6.78h-1.06v-6.78Z"/>
    <path class="cls-4" d="M46.6,26.51h1.02l1.62,7.56h-1l-.35-1.9h-1.54l-.36,1.9h-.99l1.61-7.56Zm1.15,4.9l-.63-3.41-.63,3.41h1.26Z"/>
  </g>
  <path class="cls-2" d="M10.94,15.84c-.03-1.47-1-2.73-2.4-3.18-2.45-.79-5.61-2.73-3-7.39,3.56-6.36,11.2,.76,16.8,.76s10.04,3,6.36,7.89c-.51,.68-1.19,.99-1.87,1.1-1.59,.27-2.72,1.71-2.72,3.33v7.03H11.14l-.2-9.55Z"/>
  <g>
    <g>
      <path class="cls-3" d="M1.82,13.49l-.05,.24c-.07,.33-.08,.66-.13,.99-.1,.66-.08,1.33-.1,1.99,.05,1.33,.16,2.66,.52,3.95l.12,.48c.04,.16,.1,.32,.15,.47l.31,.95,.39,.92,.2,.46,.24,.44,.47,.88,.55,.83,.27,.41,.31,.39,.62,.78-.6-.79-.3-.39-.27-.42-.53-.84-.46-.88-.23-.44-.19-.46-.37-.92-.3-.94c-.05-.16-.1-.31-.14-.47l-.11-.48c-.33-1.28-.42-2.6-.45-3.92,.03-.66,.03-1.32,.13-1.97,.05-.32,.06-.66,.14-.98l.03-.14c-.08-.05-.15-.1-.22-.15Z"/>
      <path class="cls-3" d="M5.82,27.57l-.28,.21-.93-1.17-.83-1.26-.72-1.33-.59-1.39-.32-.96c-.02-.06-.04-.11-.05-.17-.04-.11-.07-.21-.1-.32l-.12-.49c-.39-1.41-.48-2.87-.52-3.98,0-.16,0-.31,0-.46,0-.51,.02-1.04,.09-1.57,.02-.11,.03-.23,.04-.34,.02-.22,.04-.44,.09-.66l.1-.5,.28,.19c.05,.03,.1,.07,.15,.1l.1,.06-.05,.26c-.05,.2-.07,.4-.09,.61-.01,.12-.03,.24-.04,.35-.08,.49-.1,1-.11,1.5,0,.15-.01,.3-.02,.45,.02,1.07,.09,2.49,.44,3.87l.11,.49c.02,.09,.06,.19,.09,.29,.02,.06,.04,.11,.05,.17l.29,.94,.56,1.36,.68,1.31,.79,1.24,.9,1.17Z"/>
    </g>
    <path class="cls-3" d="M28.29,2.23c-.29-.18-.58-.35-.87-.52-1.16-.71-2.43-1.2-3.71-1.62-.12-.04-.23-.06-.35-.09-.09,.24-.18,.47-.25,.67,.13,.03,.27,.07,.4,.11,1.22,.42,2.43,.91,3.52,1.61,.28,.17,.55,.33,.83,.51l.77,.59c.52,.38,1.01,.8,1.47,1.26,.92,.9,1.75,1.9,2.43,3,.68,1.09,1.25,2.26,1.66,3.47,.41,1.22,.87,3.41,1,4.69h0s0,.01,0,.01c.03,.29,.29,.49,.58,.46,.29-.03,.49-.29,.46-.58-.16-1.36-.66-3.62-1.11-4.9-.46-1.28-1.08-2.51-1.82-3.65-.74-1.14-1.63-2.18-2.61-3.12-.49-.47-1.01-.9-1.57-1.3l-.82-.6Z"/>
  </g>
  <path class="cls-3" d="M3.83,28.01c-.6-.65-1.13-1.37-1.61-2.11-.48-.75-.9-1.54-1.26-2.35-.34-.82-.62-1.68-.8-2.55-.17-.88-.21-1.78-.1-2.66,.03,.89,.16,1.75,.37,2.6,.23,.84,.51,1.67,.86,2.47,.35,.8,.74,1.58,1.17,2.35,.43,.76,.88,1.52,1.38,2.25Z"/>
  <path class="cls-3" d="M38.07,16.7c-.23-1.57-.37-3.11-.61-4.64-.12-.76-.24-1.52-.42-2.27-.18-.75-.4-1.48-.7-2.22,.55,.58,.93,1.31,1.22,2.06,.29,.75,.47,1.54,.59,2.32,.12,.79,.17,1.58,.16,2.38,0,.79-.07,1.59-.24,2.37Z"/>
</svg>